D:\school\WTK\thesis\model\3dpredictsim\Results\debug_batch\Pog_s1_tmt_aCst_d05_k2000_ig24_act_TTC_GRF.mot
nRows=27
nColumns=19

name D:\school\WTK\thesis\model\3dpredictsim\Results\debug_batch\Pog_s1_tmt_aCst_d05_k2000_ig24_act_TTC_GRF.mot
datacolumns 19
datarows 27
range 0.0000000000 0.3154149185
endheader
time 	ground_force_vx	ground_force_vy	ground_force_vz	ground_force_px	ground_force_py	ground_force_pz	1_ground_force_vx	1_ground_force_vy	1_ground_force_vz	1_ground_force_px	1_ground_force_py	1_ground_force_pz	ground_torque_x	ground_torque_y	ground_torque_z	1_ground_torque_x	1_ground_torque_y	1_ground_torque_z
        0.0000000000	      -56.1256282114	       44.1174729440	       15.2301448332	        0.1838079999	        0.0000000000	        0.0523986851	      108.6100891187	      424.2730160525	       -1.8412895020	       -0.3545097281	        0.0000000000	       -0.0335369581	        0.0000000000	        0.0000000000	        0.0000000000	        0.0000000000	        0.0000000000	        0.0000000000	
        0.0121313430	     -127.5251575255	      132.0179312524	       49.8803476150	        0.1920273047	        0.0000000000	        0.0503706371	       72.6254363319	      321.4427202883	       -8.4603005027	       -0.3467064962	        0.0000000000	       -0.0303171017	        0.0000000000	        0.0000000000	        0.0000000000	        0.0000000000	        0.0000000000	        0.0000000000	
        0.0242626860	      -64.0141826772	      315.0307499064	       17.3183798205	        0.1981234607	        0.0000000000	        0.0484346079	       38.9704307446	      212.6866550017	      -14.6697169633	       -0.3331172781	        0.0000000000	       -0.0242475416	        0.0000000000	        0.0000000000	        0.0000000000	        0.0000000000	        0.0000000000	        0.0000000000	
        0.0363940291	      -62.0078200072	      532.6765522347	       -6.3224455459	        0.2031061498	        0.0000000000	        0.0487258503	       26.2832935167	      165.0623318023	      -14.4590522564	       -0.3279220756	        0.0000000000	       -0.0215919197	        0.0000000000	        0.0000000000	        0.0000000000	        0.0000000000	        0.0000000000	        0.0000000000	
        0.0485253721	     -111.2001888116	      773.2881324066	      -17.0856848842	        0.2135571568	        0.0000000000	        0.0511107040	       21.6889256055	      121.3728949532	      -16.1234707928	       -0.3274849913	        0.0000000000	       -0.0218266731	        0.0000000000	        0.0000000000	        0.0000000000	        0.0000000000	        0.0000000000	        0.0000000000	
        0.0606567151	     -140.6718363034	      894.9864117829	      -21.8167321727	        0.2206094797	        0.0000000000	        0.0526291892	        9.6363894741	       66.6920707945	      -14.6900954890	       -0.3273413304	        0.0000000000	       -0.0221707142	        0.0000000000	        0.0000000000	        0.0000000000	        0.0000000000	        0.0000000000	        0.0000000000	
        0.0727880581	     -143.5082070014	      909.8726986214	      -21.8707834152	        0.2251597643	        0.0000000000	        0.0534783848	       -3.6688844666	       10.0099594788	       -2.9947161483	       -0.3299474084	        0.0000000000	       -0.0220080500	        0.0000000000	        0.0000000000	        0.0000000000	        0.0000000000	        0.0000000000	        0.0000000000	
        0.0849194011	     -130.0977842697	      874.9443773402	      -21.2170649284	        0.2289658995	        0.0000000000	        0.0539312990	        0.0019711078	       -0.0017418447	       -0.0000318657	        0.0000000000	        0.0000000000	        0.0000000000	        0.0000000000	        0.0000000000	        0.0000000000	        0.0000000000	        0.0000000000	        0.0000000000	
        0.0970507441	     -113.6684627088	      821.1630008134	      -20.0070959463	        0.2329586830	        0.0000000000	        0.0540662268	        0.0008908762	       -0.0006633786	       -0.0000480783	        0.0000000000	        0.0000000000	        0.0000000000	        0.0000000000	        0.0000000000	        0.0000000000	        0.0000000000	        0.0000000000	        0.0000000000	
        0.1091820872	     -100.2342040508	      771.5362880462	      -19.1157124187	        0.2373999106	        0.0000000000	        0.0539794341	        0.0067844658	       -0.0044092046	       -0.0004671238	        0.0000000000	        0.0000000000	        0.0000000000	        0.0000000000	        0.0000000000	        0.0000000000	        0.0000000000	        0.0000000000	        0.0000000000	
        0.1213134302	      -89.4873634373	      734.5695317215	      -19.1410472855	        0.2425312291	        0.0000000000	        0.0536948047	       -0.0753341576	        0.0443075835	        0.0056979461	        0.0000000000	        0.0000000000	        0.0000000000	        0.0000000000	        0.0000000000	        0.0000000000	        0.0000000000	        0.0000000000	        0.0000000000	
        0.1334447732	      -79.4609400884	      702.9153453756	      -19.5005002851	        0.2477206371	        0.0000000000	        0.0533238936	       -0.2041570891	        0.1113603714	        0.0161287697	        0.0000000000	        0.0000000000	        0.0000000000	        0.0000000000	        0.0000000000	        0.0000000000	        0.0000000000	        0.0000000000	        0.0000000000	
        0.1455761162	      -69.5142803654	      674.4924584703	      -19.6472563676	        0.2525088080	        0.0000000000	        0.0530193510	       -0.1250700139	        0.0646000948	        0.0096918254	        0.0000000000	        0.0000000000	        0.0000000000	        0.0000000000	        0.0000000000	        0.0000000000	        0.0000000000	        0.0000000000	        0.0000000000	
        0.1577074592	      -60.1571831035	      650.1809410719	      -20.2826860272	        0.2570321523	        0.0000000000	        0.0527880637	       -0.0788939102	        0.0389721517	        0.0061200437	        0.0000000000	        0.0000000000	        0.0000000000	        0.0000000000	        0.0000000000	        0.0000000000	        0.0000000000	        0.0000000000	        0.0000000000	
        0.1698388023	      -51.6580514122	      629.9651280275	      -20.7661617140	        0.2614965083	        0.0000000000	        0.0526163027	       -0.0603604797	        0.0287041508	        0.0046855752	        0.0000000000	        0.0000000000	        0.0000000000	        0.0000000000	        0.0000000000	        0.0000000000	        0.0000000000	        0.0000000000	        0.0000000000	
        0.1819701453	      -44.1603645778	      613.7568081182	      -20.9888564776	        0.2659868089	        0.0000000000	        0.0524711187	       -0.0571232522	        0.0263112478	        0.0044494272	        0.0000000000	        0.0000000000	        0.0000000000	        0.0000000000	        0.0000000000	        0.0000000000	        0.0000000000	        0.0000000000	        0.0000000000	
        0.1941014883	      -37.3742371285	      600.9762105135	      -21.0320738957	        0.2706416031	        0.0000000000	        0.0523185130	       -0.0650862731	        0.0291697043	        0.0050334250	        0.0000000000	        0.0000000000	        0.0000000000	        0.0000000000	        0.0000000000	        0.0000000000	        0.0000000000	        0.0000000000	        0.0000000000	
        0.2062328313	      -31.3694916153	      591.7777122288	      -20.8583265910	        0.2757128139	        0.0000000000	        0.0521110667	       -0.0867430441	        0.0379499784	        0.0066083164	        0.0000000000	        0.0000000000	        0.0000000000	        0.0000000000	        0.0000000000	        0.0000000000	        0.0000000000	        0.0000000000	        0.0000000000	
        0.2183641743	      -26.9475884221	      586.2881226469	      -20.5289442002	        0.2812486978	        0.0000000000	        0.0518114867	       -0.1309490449	        0.0560336842	        0.0097619949	        0.0000000000	        0.0000000000	        0.0000000000	        0.0000000000	        0.0000000000	        0.0000000000	        0.0000000000	        0.0000000000	        0.0000000000	
        0.2304955173	      -23.4246047920	      583.6649041429	      -19.9769567674	        0.2870800837	        0.0000000000	        0.0514215367	       -0.2135245799	        0.0895325021	        0.0154154015	        0.0000000000	        0.0000000000	        0.0000000000	        0.0000000000	        0.0000000000	        0.0000000000	        0.0000000000	        0.0000000000	        0.0000000000	
        0.2426268604	      -20.2844062120	      583.0374872710	      -19.4674806316	        0.2931341909	        0.0000000000	        0.0509475348	       -0.3559308860	        0.1465852526	        0.0246793446	        0.0000000000	        0.0000000000	        0.0000000000	        0.0000000000	        0.0000000000	        0.0000000000	        0.0000000000	        0.0000000000	        0.0000000000	
        0.2547582034	      -17.4076679598	      582.6058412363	      -19.4580771612	        0.2992095739	        0.0000000000	        0.0504206962	       -0.5764288661	        0.2337261393	        0.0382520583	        0.0000000000	        0.0000000000	        0.0000000000	        0.0000000000	        0.0000000000	        0.0000000000	        0.0000000000	        0.0000000000	        0.0000000000	
        0.2668895464	      -14.5251710088	      580.9884702826	      -19.5274018033	        0.3051547498	        0.0000000000	        0.0498790695	       -0.8744377166	        0.3499038121	        0.0555170651	        0.0000000000	        0.0000000000	        0.0000000000	        0.0000000000	        0.0000000000	        0.0000000000	        0.0000000000	        0.0000000000	        0.0000000000	
        0.2790208894	      -11.6347364507	      578.2996641254	      -19.5885508618	        0.3109646059	        0.0000000000	        0.0493315146	       -1.2135171286	        0.4803708188	        0.0738096393	        0.0000000000	        0.0000000000	        0.0000000000	        0.0000000000	        0.0000000000	        0.0000000000	        0.0000000000	        0.0000000000	        0.0000000000	
        0.2911522324	       -8.7446125461	      574.4939708333	      -19.5225060749	        0.3166116921	        0.0000000000	        0.0487871824	       -1.5294366087	        0.6003097667	        0.0891371618	        0.0000000000	        0.0000000000	        0.0000000000	        0.0000000000	        0.0000000000	        0.0000000000	        0.0000000000	        0.0000000000	        0.0000000000	
        0.3032835755	       -5.8385585837	      569.9383787750	      -19.0848529463	        0.3221063670	        0.0000000000	        0.0482478309	       -1.7653508953	        0.6883343055	        0.0979039780	        0.0000000000	        0.0000000000	        0.0000000000	        0.0000000000	        0.0000000000	        0.0000000000	        0.0000000000	        0.0000000000	        0.0000000000	
        0.3154149185	       -2.8296339571	      564.8294083348	      -17.8942699734	        0.3274799803	        0.0000000000	        0.0477105155	       -1.9050868076	        0.7388105124	        0.0987118590	        0.0000000000	        0.0000000000	        0.0000000000	        0.0000000000	        0.0000000000	        0.0000000000	        0.0000000000	        0.0000000000	        0.0000000000	
